<svg id="Camada_1" data-name="Camada 1" xmlns="http://www.w3.org/2000/svg" xmlns:xlink="http://www.w3.org/1999/xlink" viewBox="0 0 531.1 307.18"><defs><linearGradient id="Gradiente_sem_nome_75" x1="315.79" y1="559.52" x2="564.83" y2="559.52" gradientUnits="userSpaceOnUse"><stop offset="0.49" stop-color="#185c93"/><stop offset="0.81" stop-color="#1f386c"/><stop offset="0.94" stop-color="#16355a"/></linearGradient><linearGradient id="Gradiente_sem_nome_7" x1="504.62" y1="559.85" x2="743.78" y2="559.85" gradientUnits="userSpaceOnUse"><stop offset="0.12" stop-color="#185c93"/><stop offset="0.7" stop-color="#16355a"/><stop offset="0.86" stop-color="#1f386c"/><stop offset="0.94" stop-color="#24314d"/><stop offset="1" stop-color="#24314d"/></linearGradient><linearGradient id="Gradiente_sem_nome_26" y1="153.59" x2="531.1" y2="153.59" gradientUnits="userSpaceOnUse"><stop offset="0.29" stop-color="#1d71b8"/><stop offset="0.75" stop-color="#1c5687"/><stop offset="0.9" stop-color="#184166"/><stop offset="1" stop-color="#212d44"/></linearGradient></defs><path d="M489.49,440.15l74.89,233.06c2.16,6.74-3.67,13.42-11.72,13.42h-47c-5.56,0-10.42-3.29-11.79-8L482.63,640c-1.36-4.69-6.22-8-11.79-8h-61c-5.6,0-10.47,3.32-11.81,8l-10.94,38.53c-1.34,4.72-6.21,8-11.81,8H328c-8,0-13.88-6.68-11.72-13.42l74.89-233.06c1.46-4.57,6.25-7.73,11.71-7.73h74.94C483.24,432.42,488,435.58,489.49,440.15ZM428.87,586.5h22.46c7.91,0,13.72-6.46,11.8-13.13L451.9,534.28c-3.07-10.68-20.53-10.68-23.6,0l-11.23,39.09C415.15,580,421,586.5,428.87,586.5Z" transform="translate(-274.45 -408.58)" style="fill:url(#Gradiente_sem_nome_75)"/><path d="M730.22,686.63H680a14,14,0,0,1-11.71-5.85l-74.45-111c-7.1-10.58-25.76-5.89-25.26,6.36l.17,4.16v94.52c0,6.5-6.07,11.78-13.55,11.78h-37c-7.49,0-13.56-5.28-13.56-11.78v-230c0-6.51,6.07-11.78,13.56-11.78h50.26a14,14,0,0,1,11.72,5.86l74,110.76c7.08,10.61,25.77,5.92,25.27-6.34l-.16-4V444.85c0-6.51,6.07-11.78,13.55-11.78h37.39c7.49,0,13.56,5.27,13.56,11.78v230C743.78,681.35,737.71,686.63,730.22,686.63Z" transform="translate(-274.45 -408.58)" style="fill:url(#Gradiente_sem_nome_7)"/><rect x="2" y="2" width="527.1" height="303.18" rx="10.35" style="fill:none;stroke-miterlimit:10;stroke-width:4px;stroke:url(#Gradiente_sem_nome_26)"/></svg>